PathFileType   4   (X/Y/Z)
DataRate	CameraRate	NumFrames	NumMarkers	Units	OrigDataRate	OrigDataStartFrame	OrigNumFrames
120.0	120.0	5	37	mm	120.0	41	108
Frame#	Time	midhip	hip_r	hip_l	knee_r	knee_l	ankle_r	ankle_l	midasis	asis_r	asis_l	psis_r	psis_l	epicondLat_r	epicondLat_l	epicondMed_r	epicondMed_l	malleolusLat_r	malleolusLat_l	malleolusMedv_r	malleolusMedv_l	neck	subclavicle_r	subclavicle_l	sternalnotch	xyphoidprocess	thighwand_r	thighwand_l	upperleg1_r	upperleg1_l	upperleg2_r	upperleg2_l	shankwand_r	shankwand_l	lowerleg1_r	lowerleg1_l	toe_r	toe_l
 	 	X1	Y1	Z1	X2	Y2	Z2	X3	Y3	Z3	X4	Y4	Z4	X5	Y5	Z5	X6	Y6	Z6	X7	Y7	Z7	X8	Y8	Z8	X9	Y9	Z9	X10	Y10	Z10	X11	Y11	Z11	X12	Y12	Z12	X13	Y13	Z13	X14	Y14	Z14	X15	Y15	Z15	X16	Y16	Z16	X17	Y17	Z17	X18	Y18	Z18	X19	Y19	Z19	X20	Y20	Z20	X21	Y21	Z21	X22	Y22	Z22	X23	Y23	Z23	X24	Y24	Z24	X25	Y25	Z25	X26	Y26	Z26	X27	Y27	Z27	X28	Y28	Z28	X29	Y29	Z29	X30	Y30	Z30	X31	Y31	Z31	X32	Y32	Z32	X33	Y33	Z33	X34	Y34	Z34	X35	Y35	Z35	X36	Y36	Z36	X37	Y37	Z37

	41	0.42500	953.792	868.574	-178.528	943.199	845.346	-106.772	957.433	852.573	-256.351	838.849	459.797	-115.718	1139.292	466.554	-237.836	670.634	87.341	-154.114	1272.334	94.229	-214.625	1034.225	937.420	-169.303	1022.729	931.582	-48.486	1045.721	943.257	-290.119	846.437	974.146	-155.202	857.494	972.658	-240.476	844.296	456.973	-57.540	1139.429	463.840	-295.772	819.415	466.971	-168.639	1133.109	437.501	-184.842	658.246	89.019	-116.117	1253.237	85.359	-247.452	679.355	102.982	-182.407	1279.362	113.550	-190.613	846.112	1396.647	-147.167	974.998	1323.442	-103.174	976.716	1327.277	-212.171	958.799	1333.117	-154.921	1042.638	1170.796	-170.896	910.576	540.180	21.118	1235.207	595.916	-257.405	935.584	605.546	-38.120	1146.168	609.025	-294.098	914.723	524.074	-68.262	1163.604	522.791	-285.756	728.583	195.533	-16.952	1221.722	219.554	-341.638	704.178	177.191	-92.577	1230.557	185.265	-269.691	780.120	39.213	-145.027	1395.959	67.185	-215.194
	42	0.43333	966.861	866.364	-179.260	955.678	842.998	-106.551	970.873	850.384	-256.029	849.340	458.227	-116.186	1151.974	464.923	-236.443	672.320	89.698	-154.165	1288.486	93.843	-211.210	1047.042	935.197	-168.402	1034.733	929.213	-47.305	1059.352	941.180	-289.499	859.084	971.672	-155.734	870.675	970.565	-241.140	854.107	455.451	-57.947	1152.569	462.259	-294.379	830.384	465.647	-169.159	1146.368	436.385	-183.719	659.784	91.811	-116.239	1269.521	84.635	-244.021	681.209	104.890	-182.707	1296.085	113.964	-187.433	858.768	1394.440	-147.784	987.447	1320.665	-103.114	989.998	1324.839	-212.309	971.761	1330.784	-154.998	1055.267	1168.085	-170.908	919.990	538.557	21.345	1247.768	595.151	-255.192	946.254	603.530	-37.430	1159.134	608.245	-292.547	924.884	521.928	-67.714	1177.151	522.045	-284.194	732.222	197.079	-17.223	1236.870	218.139	-339.029	707.874	178.557	-92.720	1246.332	184.661	-266.163	780.539	39.186	-145.044	1412.645	66.503	-210.906
	43	0.44167	979.596	864.219	-179.615	968.452	840.830	-106.486	984.389	848.544	-255.870	860.248	456.709	-116.558	1164.877	463.563	-234.916	674.271	92.444	-153.977	1302.323	92.871	-207.746	1060.089	933.194	-167.681	1047.144	926.928	-46.341	1073.035	939.459	-289.021	871.977	969.514	-156.045	883.973	968.787	-241.535	864.458	453.995	-58.272	1165.889	460.885	-292.846	841.897	464.336	-169.420	1158.918	435.881	-182.682	661.620	95.013	-116.118	1283.366	83.441	-240.499	683.505	107.058	-182.641	1309.642	113.528	-184.281	871.937	1392.579	-148.627	1000.124	1318.396	-103.254	1003.497	1322.732	-212.390	984.849	1328.688	-155.142	1068.057	1165.748	-170.768	930.056	536.995	21.500	1260.867	594.683	-253.084	958.016	601.859	-37.188	1172.908	607.954	-290.952	935.786	519.899	-67.261	1190.630	521.770	-282.709	736.254	198.969	-17.356	1250.359	216.329	-336.268	710.594	180.733	-92.878	1260.333	183.416	-263.179	780.992	39.175	-145.051	1426.778	64.901	-206.842
	44	0.45000	992.943	862.942	-179.545	981.557	838.873	-106.609	998.022	847.086	-255.909	871.600	455.267	-116.802	1177.940	462.428	-233.263	676.592	95.597	-153.531	1313.980	91.318	-204.293	1073.399	931.451	-167.172	1059.995	924.765	-45.628	1086.803	938.137	-288.716	885.182	967.701	-156.140	897.448	967.320	-241.656	875.397	452.629	-58.485	1179.329	459.668	-291.180	854.228	462.908	-170.411	1172.148	435.904	-181.146	663.849	98.647	-115.738	1294.909	81.777	-236.947	686.396	109.764	-182.196	1321.246	111.919	-181.209	884.799	1391.212	-149.310	1012.983	1316.414	-103.295	1016.818	1320.557	-212.387	998.076	1326.892	-155.378	1080.665	1163.421	-170.262	940.863	535.504	21.621	1274.446	594.428	-251.092	970.047	600.090	-37.152	1186.781	607.776	-289.742	947.324	517.730	-67.420	1204.528	521.516	-281.148	740.732	201.248	-17.303	1262.248	214.132	-333.395	714.634	183.200	-93.102	1271.692	181.820	-260.358	781.516	39.184	-145.036	1438.470	62.409	-202.958
	45	0.45833	1007.349	862.516	-179.431	995.023	837.153	-106.931	1011.819	846.015	-256.157	883.429	453.904	-116.889	1191.087	461.475	-231.500	679.389	99.172	-152.820	1323.578	89.244	-200.859	1086.997	929.994	-166.886	1073.298	922.766	-45.174	1100.697	937.222	-288.598	898.756	966.232	-156.044	911.148	966.146	-241.526	886.971	451.357	-58.552	1192.824	458.572	-289.402	867.071	461.048	-171.338	1186.496	436.294	-178.795	666.562	102.730	-115.099	1304.306	79.705	-233.395	689.629	112.903	-181.564	1331.062	109.387	-178.093	897.871	1389.762	-149.917	1026.365	1315.050	-103.172	1030.463	1318.811	-212.629	1011.414	1325.420	-155.718	1094.353	1161.884	-169.602	952.486	534.089	21.767	1288.411	594.305	-249.189	981.737	598.406	-37.262	1200.699	607.430	-288.626	959.413	516.012	-67.748	1218.904	521.315	-279.278	745.708	203.960	-17.025	1272.697	211.611	-330.444	721.099	185.498	-93.287	1281.172	179.814	-257.308	782.155	39.216	-144.987	1447.894	59.209	-199.229
